<svg xmlns="http://www.w3.org/2000/svg" viewBox="0 0 256 256" fill="none">
  <defs>
    <linearGradient id="g" x1="0" x2="1" y1="0" y2="1">
      <stop offset="0%" stop-color="#F6D7DE"/>
      <stop offset="100%" stop-color="#E8D8C9"/>
    </linearGradient>
  </defs>
  <rect width="256" height="256" rx="64" fill="url(#g)"/>
  <path d="M128 190s-58-36-58-86c0-22 17-40 39-40 12 0 23 5 31 14 8-9 19-14 31-14 22 0 39 18 39 40 0 50-58 86-58 86Z" fill="#6B4350" opacity="0.95"/>
  <path d="M128 72c-5-7-14-11-24-11-17 0-31 14-31 31 0 39 43 70 55 78 12-8 55-39 55-78 0-17-14-31-31-31-10 0-19 4-24 11Z" fill="#FFF8F1" opacity="0.4"/>
</svg>